<svg width="720" height="512" viewBox="0 0 720 512" fill="none" xmlns="http://www.w3.org/2000/svg">
<path d="M122.91 92.063H110.235L100.398 92.3272H97.5593L91.6843 94.6374L88.116 95.6302L86.0735 96.1568L83.2963 97.0149H81.3826L79.0711 96.4883L76.1026 97.7384L73.3927 98.6639L71.6138 97.8057L69.1056 97.1444L65.6044 97.2118L62.765 98.0699L59.6621 99.8535H57.4178L54.7752 98.4619L53.1927 96.0221V93.5151L52.2669 91.469L50.0225 89.0293L47.385 89.2917L45.7972 89.2244L44.7578 89.0845L45.2024 88.0365C45.2024 88.0365 39.462 88.0365 38.8674 88.0365C38.2726 88.0365 38.2054 85.5968 38.2054 85.5968L38.5362 82.6287L39.462 83.9478L41.2409 80.0543L38.407 79.5899V76.8186L41.2409 76.0278L38.9344 75.0402L37.2847 73.4534L35.8936 69.4943L34.9732 63.4925L32.3978 60.2568L31.1411 56.1682L32.3978 51.0194L33.4528 51.4804L35.2369 52.4369L37.2847 54.0859L39.0638 55.108L41.2773 55.31L43.9509 55.5742L46.8886 55.7037L49.5621 55.8678L53.0633 56.4323L54.051 57.2905L55.6335 59.3676L56.7249 60.8197L57.1227 61.9731L57.3506 64.4128L57.7177 65.8338L57.8159 68.6361L59.0364 69.1628L59.7293 68.7708L59.5639 67.4172C59.5639 67.4172 59.0364 65.9633 59.0364 65.8338C59.0364 65.7009 58.6382 63.2249 58.6382 63.2249L58.4416 61.9057L59.1658 59.0689C59.1658 59.0689 60.1585 57.1869 60.1585 57.0574C60.1585 56.9227 59.6621 55.31 59.6621 55.31C59.6621 55.31 58.2763 54.5141 58.1471 54.4519C58.0124 54.3846 57.2521 54.9129 57.2521 54.9129L57.9453 56.2303L58.6071 58.045L58.2763 59.2036L57.485 58.841L55.7681 57.4511L55.5041 56.1319L54.5112 55.2064L53.7563 54.0237L54.5112 51.9397L55.6698 51.1178L57.3506 50.6223L57.6506 49.2669V47.3244L57.0246 45.5771L55.6024 44.9158L54.7441 43.8246L53.4925 41.5817L53.0633 40.0001H121.328V51.0867L120.997 82.8255V85.9939L121.788 89.2917L122.91 92.063Z" fill="#2D4573"/>
<path d="M127.358 99.2578L125.641 103.611L123.309 109.374L120.532 114.388L118.949 120.152L119.477 121.036L121.68 122.091L122.776 123.058L122.337 125.739L121.768 128.381L121.416 134.888V157.659H36.4526L36.4269 157.592L34.839 152.842L33.9805 147.693L33.4531 144.395L34.0479 138.917L36.9541 135.023L38.1747 130.605L39.0642 120.571L39.7261 108.165V102.096L40.1191 93.0557L39.5917 89.7527H44.4788L44.7581 89.0845L45.7975 89.2243L47.3854 89.2917L50.0228 89.0292L52.2673 91.469L53.193 93.515V96.0221L54.7755 98.4618L57.4181 99.8534H59.6624L62.7654 98.0698L65.6048 97.2117L69.106 97.1444L71.6142 97.8057L73.3931 98.6638L76.1029 97.7383L79.0715 96.4882L81.383 97.0149H83.2966L86.0738 96.1567L88.1164 95.6301L91.6847 94.6373L97.5597 92.3271H100.399L110.235 92.0629H122.828L124.188 93.4062L125.202 94.6373L126.784 96.3121L127.358 99.2578Z" fill="#2D4573"/>
<path d="M191.527 117.401V157.659H121.416V134.888L121.768 128.381L122.337 125.739L122.776 123.058L121.68 122.091L119.477 121.036L118.949 120.152L120.532 114.388L123.309 109.374L125.641 103.611L127.358 99.2578L126.784 96.3121L125.201 94.6373L124.188 93.4062L122.828 92.0629H122.911L121.788 89.2917L120.997 85.9938V82.8254L121.328 51.0866V40H132.55V57.0884L133.74 59.5333L135.984 62.434L136.377 65.7992L137.37 68.3719L140.669 71.081L144.3 74.9072L147.403 78.4053L150.702 81.1092H152.622L152.886 84.1446L152.357 89.4885L152.487 93.7118L150.702 96.1567V98.5291L152.487 100.577L153.805 100.313L155.724 99.1904L156.515 98.1372H157.835L159.153 99.3251L159.815 102.623L160.214 104.733L162.654 106.914L163.114 110.543L165.892 111.731L167.609 114.036L169.583 118.922L171.962 118.259L175.526 117.8L179.162 117.077L182.394 116.483L184.902 116.942L186.949 115.82L187.545 114.036H188.471L190.383 115.293L191.527 117.401Z" fill="#2D4573"/>
<path d="M274.184 40.0001V108.563H191.527V117.401L190.383 115.293L188.471 114.036H187.545L186.949 115.82L184.902 116.942L182.394 116.483L179.162 117.077L175.525 117.8L171.962 118.259L169.583 118.922L167.609 114.036L165.892 111.731L163.114 110.543L162.654 106.914L160.214 104.733L159.814 102.623L159.153 99.3252L157.835 98.1372H156.515L155.724 99.1905L153.805 100.313L152.487 100.577L150.702 98.5292V96.1568L152.487 93.7119L152.357 89.4886L152.886 84.1447L152.621 81.1093H150.702L147.403 78.4054L144.3 74.9072L140.669 71.081L137.37 68.372L136.377 65.7993L135.984 62.4341L133.74 59.5334L132.55 57.0885V40.0001H274.184Z" fill="#2D4573"/>
<path d="M361.862 93.2716H274.184V40.0001H354.311L354.994 47.5213L356.049 55.9662L357.369 60.3656L359.133 71.8045V78.0549L360.01 83.069L361.681 87.9951V91.4276L361.862 93.2716Z" fill="#2D4573"/>
<path d="M445.384 57.8481L443.996 58.9704L443.236 59.7301L442.053 60.3914L440.238 60.8818L437.263 61.7399L434.295 62.8311L432.48 63.8861L430.892 64.9774L428.716 67.4482L426.967 68.7707L424.226 71.3762L422.675 73.7538L420.198 74.6119L417.954 76.7512L416.696 78.3017L416.68 78.799V78.8042L415.026 79.683L413.046 81.0004C413.046 81.0004 412.559 82.8462 412.559 82.9809C412.559 83.1104 412.341 86.7173 412.341 86.852C412.341 86.9815 412.079 89.9322 411.991 90.2845C411.902 90.6367 411.55 91.557 411.329 91.69C411.111 91.8195 408.779 92.7916 408.556 93.0091C408.334 93.2318 406.663 94.4198 406.622 94.7254C406.575 95.0344 405.081 97.671 405.081 97.671C405.081 97.671 406.224 98.9487 406.266 99.1231C406.312 99.2992 407.454 101.062 407.542 101.192C407.63 101.326 407.853 103.434 407.853 103.434L406.204 107.11L406.534 111.664L407.326 114.171L412.011 116.218L415.378 119.185L417.555 123.078L420.989 125.321L423.367 127.766L424.159 130.665L425.084 133.768L425.11 133.835H362.638L363.419 133.307V130.34L363.094 126.644L363.419 119.713L363.026 108.563L363.419 105.26L362.033 102.36L358.537 99.3251C358.537 99.3251 360.052 97.5415 360.187 97.1444C360.316 96.7507 362.033 94.9671 362.033 94.9671L361.862 93.2715L361.681 91.4275V87.995L360.01 83.0689L359.133 78.0548V71.8044L357.369 60.3655L356.049 55.9661L354.994 47.5212L354.312 40H377.155L378.276 41.3848H379.596L381.577 41.9114L383.16 42.7022L384.483 43.8245L385.936 44.9468L389.1 45.6754L391.149 46.2435L392.293 46.5336L394.231 47.2363L394.604 48.0737C394.604 48.0737 396.191 48.2705 396.254 48.2705C396.321 48.2705 399.138 47.4797 399.138 47.4797L400.567 47.3658L401.512 47.7163L401.999 48.1618L403.013 48.4449H407.542L407.589 49.5879H408.603L409.963 50.2493L410.712 51.7428L411.726 53.0671L412.429 51.9189L413.661 51.7013C413.661 51.7013 415.425 51.9189 415.601 51.9189C415.775 51.9189 416.52 52.9739 416.52 52.9739L417.757 53.7698L419.866 55.7037C419.866 55.7037 421.32 56.3649 421.453 56.3649C421.583 56.3649 424.402 55.31 424.402 55.31L427.261 54.2084L429.419 53.4591L430.609 56.2303H436.814L439.761 57.5943L441.566 57.729L445.384 57.8481Z" fill="#2D4573"/>
<path d="M286.533 233.346L286.393 241.178L285.25 305.273H244.256V308.298L224.888 308.045V314.557H214.943V233.346H286.533Z" fill="#2D4573"/>
<path d="M214.943 233.346V314.557H191.174L148.043 298.457L148.468 295.483L149.802 294.76L151.472 293.793C151.472 293.793 151.296 291.856 151.296 291.592C151.296 291.327 150.242 290.801 150.242 290.801L149.011 290.01L148.572 287.807L149.363 285.258L151.034 283.233L151.122 280.07L151.208 277.78L153.06 275.665L155.433 273.557L153.589 272.326C153.589 272.326 152.269 270.915 152.001 270.475C151.737 270.036 152.001 268.631 152.001 268.631L149.978 265.901V263.171L149.405 262.64L147.997 247.732H156.05L156.318 234.271L156.323 233.346H214.943Z" fill="#2D4573"/>
<path d="M214.943 173.782V233.346H156.323L156.846 157.659H191.526V173.782H214.943Z" fill="#2D4573"/>
<path d="M397.861 321.511L395.922 326.701L395.13 331.715L394.251 334.619L394.122 336.857L386.903 339.148L383.686 339.324V336.688L382.413 336.465L378.628 344.25L376.208 347.728L371.145 350.05L367.944 351.699L366.785 350.675L362.432 351.632L363.75 353.379L363.62 355.523L360.15 357.637L359.132 356.944H356.489L354.539 358.398L356.489 358.925L355.066 361.763L352.331 361.824L354.012 364.234L352.527 370.426L352.352 375.528L354.905 386.44L352.264 388.027L349.533 385.826L343.022 385.035L336.154 381.426L332.017 380.283L327.703 373.682V366.731L324.446 362.682L318.375 356.35L314.765 349.485L311.946 343.066L308.776 340.074L304.374 335.674H296.985C296.985 335.674 294.253 334.707 293.638 334.707C293.024 334.707 293.638 336.113 293.638 336.113L289.854 336.289L288.09 342.802L285.452 346.317H282.633L275.941 342.358L269.695 338.223L267.14 333.911L265.91 328.809L262.035 322.828L257.898 320.627L254.025 317.018L249.888 312.883L244.959 308.309L244.256 308.299V305.273H285.25L286.394 241.178H321.808V268.717L323.216 270.651L326.209 271.887H329.286L331.402 273.117L333.599 274.875L341.082 276.023C341.082 276.023 343.725 274.61 343.813 276.023C343.902 277.428 345.66 278.483 345.66 278.483H351.561C351.561 278.483 353.055 279.409 353.364 279.409C353.67 279.409 355.785 279.144 355.785 279.144C355.785 279.144 357.719 279.056 357.942 279.144C358.16 279.233 360.492 279.624 360.492 279.624C360.492 279.624 361.857 280.023 361.945 280.287C362.033 280.55 363.135 281.123 363.135 281.123L364.893 281.387C364.893 281.387 367.669 279.889 367.887 279.889C368.11 279.889 371.936 278.834 371.936 278.834L375.37 278.792C375.37 278.792 377.479 278.792 377.614 278.792C377.749 278.792 379.549 279.01 379.549 279.01L381.974 280.597L385.315 282.401L386.505 282.551V282.618L388.796 283.409H390.817L391.784 286.313V294.672L392.581 303.031L394.515 309.72L395.745 312.62L396.806 316.403L397.861 321.511Z" fill="#2D4573"/>
<path d="M445.656 337.302L443.061 338.357L444.12 340.201V341.391L441.477 340.864L437.692 339.236L439.057 341.743L439.41 344.162L436.637 345.088L436.063 343.154L432.102 343.459L429.594 345.134L428.492 343.81L427.836 344.162L425.678 343.592L423.211 342.052L424.84 341.567L424.355 340.201L421.935 339.721L421.144 336.903L417.316 334.396L415.816 334.355L414.674 336.113L415.072 338.311L413.795 338.796L411.591 338.842L408.333 338.135L403.669 336.289H395.921L394.121 336.857L394.251 334.619L395.13 331.715L395.921 326.701L397.861 321.511L396.806 316.403L395.745 312.62L394.515 309.719L392.581 303.031L391.784 294.672V291.151H425.999L425.678 292.118L427.195 295.639L428.14 299.159C428.14 299.159 428.14 301.097 428.14 301.361C428.14 301.625 426.822 303.733 426.822 303.733L426.031 306.199C426.031 306.199 424.707 307.957 424.619 308.221C424.531 308.485 422.949 309.808 422.949 309.808L421.19 311.653C421.19 311.653 420.482 314.822 420.394 315.348C420.306 315.877 420.306 318.518 420.306 318.518V319.309H442.141C442.141 319.309 441.431 321.599 441.431 321.775C441.431 321.949 441.256 323.971 441.256 323.971L442.227 325.734L442.709 327.227L443.897 328.768L444.865 329.6L446.065 330.025L445.481 330.22L442.756 330.349L439.72 328.856L437.207 328.545L435.226 330.087L435.096 332.768H438.883L439.451 331.977H441.876L441.565 332.856L443.723 334.883L445.837 333.343L446.278 334.795L445.656 337.302Z" fill="#2D4573"/>
<path d="M461.151 263.306V270.125L459.832 283.936L458.249 298.105L457.277 310.951L457.981 318.869L457.805 325.289L458.104 329.244L455.297 328.194L453.228 327.445L450.942 328.417L446.066 330.025L444.865 329.6L443.898 328.768L442.709 327.228L442.227 325.734L441.256 323.971C441.256 323.971 441.431 321.949 441.431 321.775C441.431 321.599 442.141 319.309 442.141 319.309H420.306V318.518C420.306 318.518 420.306 315.877 420.394 315.348C420.482 314.822 421.191 311.653 421.191 311.653L422.949 309.808C422.949 309.808 424.531 308.485 424.62 308.221C424.708 307.957 426.031 306.199 426.031 306.199L426.822 303.733C426.822 303.733 428.14 301.625 428.14 301.361C428.14 301.097 428.14 299.16 428.14 299.16L427.195 295.639L425.678 292.118L426 291.151L426.207 290.537C426.207 290.537 426.295 288.071 426.295 287.721C426.295 287.368 425.678 285.084 425.678 285.084L425.416 282.793C425.416 282.793 426.822 280.332 427.195 280.07C427.572 279.801 428.228 276.902 428.228 276.549C428.228 276.197 428.581 274.787 428.669 274.26C428.757 273.732 430.08 273.381 430.256 273.117C430.432 272.853 432.015 270.651 432.015 270.651L433.333 267.84C433.333 267.84 433.69 266.868 433.69 266.516C433.69 266.165 434.481 264.67 434.481 264.67L436.679 263.529C436.679 263.529 436.741 263.446 436.834 263.306H461.151Z" fill="#2D4573"/>
<path d="M498.257 319.221H467.842L469.162 324.235L470.226 328.376L470.087 328.371L466.963 329.424L464.76 328.241L462.516 325.026L461.678 328.68L458.115 329.249L458.104 329.244L457.804 325.289L457.98 318.869L457.277 310.951L458.249 298.105L459.832 283.936L461.15 270.125V263.306H490.996L492.314 272.326L494.335 280.861L496.89 294.145L497.946 299.51L498.474 303.471C498.474 303.471 496.89 305.848 496.89 306.199C496.89 306.551 497.155 310.246 497.155 310.246L497.243 314.91L498.257 319.221Z" fill="#2D4573"/>
<path d="M556.745 377.467L556.089 385.473L554.854 389.785L553.225 392.73L552.784 395.987L551.155 396.954H548.647L546.579 397.745H545.306L545.218 396.648L546.139 394.846L544.821 393.744L543.543 393.083L541.122 389.298L538.744 388.245L536.809 386.528L536.059 383.231L533.159 379.622L531.618 376.013L529.637 374.913L528.272 372.757L526.906 369.459L526.156 365.5L528.535 362.378L526.952 361.235L526.068 362.905L525.277 362.946L524.662 359.122L524.926 354.898L525.541 350.1L524.75 346.188C524.75 346.188 522.903 343.986 522.68 343.986C522.464 343.986 520.571 342.89 520.571 342.89L517.752 339.545L514.805 335.363L510.972 332.154L507.586 331.889L504.064 334.707L500.277 336.688L494.382 337.126L493.193 333.999L488.042 329.911L483.552 327.051L479.503 327.227L475.895 327.093L473.737 326.525L472.507 328.417L470.225 328.376L469.161 324.235L467.841 319.221H498.256L499.263 323.533L528.488 324.808L530.78 325.288L531.571 327.668H533.335L533.862 322.389L540.3 323.066L540.243 324.938L541.475 331.404L544.292 340.6L547.68 348.297L550.938 352.965L550.54 357.053L551.067 359.607L553.493 365.938L555.381 370.825L556.745 377.467Z" fill="#2D4573"/>
<path d="M546.816 304.643L546.492 305.229L543.807 309.058L541.081 315.566L540.42 319.309L540.3 323.066L533.862 322.39L533.335 327.668H531.572L530.781 325.289L528.488 324.809L499.264 323.533L498.256 319.221L497.242 314.91L497.154 310.246C497.154 310.246 496.89 306.551 496.89 306.199C496.89 305.848 498.474 303.471 498.474 303.471L497.946 299.51L496.89 294.145L494.335 280.861L492.314 272.326L490.996 263.306H521.58L518.543 265.901V267.84L522.769 270.387L525.5 274.875L528.138 279.362L532.895 282.706L537.647 289.834L541.257 295.815L543.104 300.301L543.895 303.821L546.816 304.643Z" fill="#2D4573"/>
<path d="M607.692 252.73L606.078 255.041L603.238 257.517L601.29 257.765L598.916 257.853L597.856 258.948L597.591 260.975L596.449 262.339L594.82 262.028L593.63 262.691L595.083 264.408L596.888 263.745L598.559 263.306L600.937 263.524L600.716 265.152L598.382 267.307L594.51 267.794L590.77 268.759L585.883 271.136L582.495 274.657L581.219 275.536V277.516L580.692 279.624L579.284 279.712L575.979 279.624L574.221 280.034L571.362 275.935L566.081 269.86L561.768 266.428L557.363 265.813L551.115 265.549C551.115 265.549 547.857 264.67 547.592 264.582C547.33 264.496 545.748 261.414 545.748 261.414L541.17 260.272H535.884L529.902 259.832L523.386 261.766L521.581 263.306H506.226C506.469 261.926 506.749 260.288 506.749 259.832C506.749 258.995 508.072 259.832 508.072 259.832C508.072 259.832 510.316 258.684 510.316 258.292C510.316 257.893 511.237 256.179 511.237 256.179L516.124 254.462L521.275 252.352C521.275 252.352 522.728 250.9 522.728 250.501C522.728 250.109 523.851 248.785 523.851 248.785H526.953L527.609 247.338H530.781L533.16 245.36L536.986 242.189L537.494 239.962L605.235 240.691C605.38 241.223 605.515 241.699 605.531 241.746C605.567 241.844 605.86 244.134 605.86 244.134L606.539 245.435L605.778 247.566L604.377 246.926L602.825 246.858L600.302 247.4L597.215 248.259L596.981 249.659L598.284 249.35L600.68 248.621L603.09 248.837L603.368 249.778L604.18 253.257L604.708 252.269L605.22 250.254L606.817 249.531L607.464 250.719L607.692 252.73Z" fill="#2D4573"/>
<path d="M386.505 250.854V282.551L385.315 282.401L381.974 280.597L379.549 279.01C379.549 279.01 377.749 278.792 377.614 278.792C377.48 278.792 375.37 278.792 375.37 278.792L371.936 278.834C371.936 278.834 368.11 279.889 367.887 279.889C367.67 279.889 364.894 281.387 364.894 281.387L363.135 281.123C363.135 281.123 362.033 280.55 361.945 280.288C361.857 280.023 360.492 279.625 360.492 279.625C360.492 279.625 358.16 279.233 357.942 279.145C357.72 279.056 355.785 279.145 355.785 279.145C355.785 279.145 353.67 279.409 353.365 279.409C353.055 279.409 351.561 278.483 351.561 278.483H345.66C345.66 278.483 343.902 277.428 343.814 276.023C343.726 274.61 341.083 276.023 341.083 276.023L333.599 274.875L331.402 273.117L329.286 271.888H326.209L323.216 270.651L321.808 268.717V241.178H286.394L286.534 233.346H385.046L385.009 235.899L385.362 241.266V244.873L386.505 250.854Z" fill="#2D4573"/>
<path d="M475.326 105.415L474.224 107.354L473.122 109.814L471.23 113.38L470.439 117.733L468.681 123.848L467.402 127.105L465.464 132.293L464.274 136.518L464.362 140.61L464.848 142.767L465.815 144.525L466.302 146.065L465.597 147.166L465.561 149.606H432.242C432.035 149.373 431.9 149.202 431.885 149.145C431.817 148.883 427.457 146.174 427.457 146.174L425.942 142.679V135.814L425.11 133.835L425.084 133.768L424.158 130.665L423.367 127.766L420.988 125.321L417.554 123.078L415.377 119.185L412.011 116.218L407.326 114.171L406.533 111.664L406.203 107.11L407.853 103.435C407.853 103.435 407.63 101.326 407.542 101.192C407.454 101.062 406.312 99.2992 406.265 99.1231C406.224 98.9487 405.08 97.671 405.08 97.671C405.08 97.671 406.574 95.0345 406.621 94.7254C406.662 94.4198 408.333 93.2319 408.556 93.0091C408.779 92.7916 411.111 91.8195 411.328 91.69C411.549 91.557 411.902 90.6367 411.99 90.2845C412.078 89.9323 412.34 86.9815 412.34 86.852C412.34 86.7173 412.558 83.1104 412.558 82.9809C412.558 82.8462 413.045 81.0005 413.045 81.0005L415.025 79.683L416.68 78.8042L416.597 81.3061L417.125 81.2439L417.922 80.6137L419.504 80.3184L421.123 79.7918L422.41 79.0632L424.127 78.3691L425.642 77.4488C425.642 77.4488 427.758 77.4143 427.887 77.4143C428.022 77.4143 429.672 77.4143 429.672 77.4143C429.672 77.4143 430.928 77.6767 431.088 77.6767C431.254 77.6767 430.297 78.4364 430.297 78.4364L430.131 80.2822V81.7343C430.131 81.7343 431.62 81.4718 431.719 81.4718C431.817 81.4718 432.774 81.8327 433.008 81.9C433.234 81.9674 433.664 82.7582 433.664 82.7582L434.621 83.2244L435.752 82.8151L436.637 84.1688C436.637 84.1688 438.131 85.576 438.266 85.7107C438.395 85.8385 441.477 87.6842 441.7 87.7309C441.918 87.7775 444.649 88.3921 444.649 88.3921L449.313 89.6647L452.483 90.5487L456.532 91.5156L459.831 92.5274L461.942 93.888L462.826 95.5628L464.673 96.9683L465.288 99.2112L465.024 101.63L466.43 105.239L466.741 106.649L467.579 107.266L468.974 107.663L467.708 108.894L465.07 110.564L463.922 113.333L463.882 114.961L465.024 115.003L466.167 114.347L467.884 112.233L469.384 111.266L471.142 108.982L472.11 107.658C472.11 107.658 472.947 106.47 473.169 106.382C473.386 106.294 474.177 105.151 474.177 105.151L475.15 104.888L475.326 105.415Z" fill="#2D4573"/>
<path d="M436.705 155.679V158.186C436.705 158.186 435.908 162.409 435.711 162.539C435.516 162.673 432.479 164.849 432.479 164.849C432.479 164.849 428.451 166.235 428.254 166.37C428.054 166.498 426.337 169.139 426.337 169.336C426.337 169.538 428.845 172.308 428.845 172.308L427.66 175.54L424.754 179.37C424.754 179.37 422.179 181.35 422.179 182.006L420.921 180.822L417.819 179.432H371.311L370.489 177.565C370.489 177.565 370.395 172.639 370.483 171.931C370.572 171.229 369.164 166.303 369.164 166.303L365.643 155.566L364.235 151.518L362.824 149.233C362.824 149.233 362.741 149.005 362.627 148.681C362.344 147.895 361.857 146.514 361.857 146.329C361.857 146.065 362.56 143.161 362.56 142.72C362.56 142.28 363.418 139.376 363.418 139.376L361.769 136.739L361.857 134.362L362.637 133.835H425.11L425.943 135.814V142.679L427.458 146.174C427.458 146.174 431.818 148.883 431.885 149.145C431.901 149.202 432.035 149.373 432.243 149.606C432.987 150.449 434.658 152.113 434.658 152.113L436.705 155.679Z" fill="#2D4573"/>
<path d="M479.944 96.6161L481.444 95.9133L484.302 93.0092L486.019 93.3597L487.913 93.5358L489.319 92.353L491.523 91.6037C491.523 91.6037 492.841 91.1168 492.971 91.0753C493.105 91.0287 494.47 91.0287 494.47 91.0287L497.155 92.2184L499.177 93.1853L500.062 94.684L500.542 95.2106L501.188 95.6768L501.618 95.991L501.68 96.0377L502.259 96.1568L502.373 95.3298L502.244 93.9968L502.358 92.8538L502.456 92.1614L504.814 92.4808L509.081 92.9677L510.58 92.6569L509.519 91.3395L507.761 89.1363L508.64 87.8189L508.552 83.6837L504.638 84.0825L502.57 84.7386H500.19L498.872 83.8598L498.474 82.5406L498.431 81.0419L498.96 79.987C498.96 79.987 497.331 79.854 497.155 79.8126C496.978 79.7659 495.836 80.0336 495.66 80.1216C495.484 80.2097 494.249 80.2977 493.985 80.3392C493.72 80.3858 491.741 80.5153 491.741 80.5153L490.551 81.218L489.01 81.4408L486.149 81.4822L485.049 81.5288L483.62 82.5821L481.882 83.5956L480.849 84.2569L479.592 84.6713L474.798 84.433H472.661L471.229 83.6629L469.979 82.9136L468.944 81.7447L468.059 79.8126L466.762 78.6695L465.396 77.3055L463.746 77.0621L462.086 76.7202L460.039 76.6891L458.983 77.2175L458.156 77.1501L458.75 75.237L460.467 73.191L461.853 71.3452L463.539 70.5182L464.63 69.6963L465.981 68.9366L465.95 68.0784L464.332 67.5518H462.877L461.823 67.98L459.909 68.5377L458.156 69.3959L456.935 70.5182L453.998 73.8834L452.183 75.2008L450.73 75.9294L447.529 77.0828L445.781 77.713L443.438 79.1288L441.457 79.8903L439.704 81.0419L438.054 81.7032L436.601 82.3973L435.81 82.7945L435.753 82.8152L436.637 84.1688C436.637 84.1688 438.132 85.5761 438.266 85.7107C438.396 85.8385 441.478 87.6843 441.7 87.7309C441.916 87.7775 444.647 88.3922 444.647 88.3922L449.313 89.6647L452.483 90.5487L456.532 91.5156L459.832 92.5274L461.941 93.888L462.825 95.5629L464.672 96.9683L465.287 99.2112L465.024 101.63L466.43 105.239L466.741 106.65L467.579 107.266L468.975 107.663L469.25 107.394L470.35 104.888L472.419 100.137L473.784 98.5965L476.069 98.0699L477.348 97.4535L478.097 96.4417L479.944 96.6161Z" fill="#2D4573"/>
<path d="M528.008 139.334L527.787 144.483L527.129 147.869L525.061 149.627L522.376 152.004L520.965 153.146L519.863 155.876L519.295 158.206L517.179 160.363L517.072 161.815H477.664C477.923 161.447 478.678 160.368 478.714 160.187C478.755 159.964 479.856 158.032 479.856 158.032L481.837 155.566L483.689 152.443V141.051L482.804 138.937C482.804 138.937 482.013 136.781 482.013 136.651C482.013 136.518 481.443 134.45 481.443 134.45L481.222 130.537L481.707 127.455L482.939 124.51L484.04 122.22L484.919 120.766C484.919 120.766 484.743 118.22 484.743 117.997C484.743 117.779 483.905 116.983 483.905 116.983C483.905 116.983 483.993 115.448 483.993 115.272C483.993 115.096 484.831 114.3 484.831 114.3L485.447 113.159L486.724 111.529L487.562 110.652L489.367 110.517L489.847 109.374L490.638 108.583L490.726 112.104L491.829 112.366L493.017 111.401L494.072 110.388L494.207 106.32L494.627 105.638L495.748 105.482C495.748 105.482 496.075 105.063 496.075 104.995C496.075 104.933 497.047 104.448 497.047 104.448L497.992 103.678L498.804 103.305C498.804 103.305 499.047 102.576 499.027 102.509C499.001 102.447 498.386 102.096 498.386 102.096V97.8471L499.597 96.5763L501.271 96.4623L501.587 96.5245L502.165 96.6367L502.746 96.7507L504.855 97.8057L508.424 99.6514L512.914 102.07L516.476 104.448L518.327 107.528L518.721 108.495L517.267 108.671L517.004 109.509L517.883 110.605L518.545 112.192L518.896 113.509L518.146 113.644L517.928 115.799L517.49 118.612L516.171 123.058L514.102 125.342L512.162 127.322L511.589 129.833L512.779 131.679L514.102 132.254L515.069 131.725L515.684 129.921L517.051 128.118L518.808 127.058L520.437 125.786L521.756 124.815L524 125.653L525.541 126.882L526.379 128.469L527.084 129.921L527.129 132.119L527.522 137.794L528.008 139.334Z" fill="#2D4573"/>
<path d="M550.919 158.942V178.17L550.587 178.574L549.594 180.492L549.993 182.668L549.134 185.506L548.276 188.737L546.958 193.357L544.118 196.263C544.118 196.263 540.881 198.242 540.616 198.439C540.354 198.635 536.391 200.352 536.391 200.352L532.43 203.479L531.442 208.14L530.186 211.635L527.678 212.229H526.096L524.508 210.71L523.188 208.203L521.933 209.128H518.7L515.596 208.736H512.297L509.324 207.479L506.816 205.433L504.308 202.797L501.07 202.408V161.815H517.072L517.004 162.694L518.457 163.708L520.309 164.364L521.492 165.113L524.135 165.904L525.764 167.005L527.258 167.314L530.604 167.27L531.484 166.215L534.567 166.168L535.844 165.377H538.352L539.67 164.762L541.171 163.355C541.171 163.355 542.971 161.727 542.971 161.592C542.971 161.463 545.965 160.586 545.965 160.586L548.561 159.526L550.919 158.942Z" fill="#2D4573"/>
<path d="M710 110.253V112.63L706.747 115.49H704.368L703.401 116.854H701.596L700.278 117.821L699.305 119.097L695.695 120.854L691.734 121.956L687.685 118.171L686.102 122.529L685.885 125.036L683.682 126.53L681.701 126.314L678.754 129.26L676.287 129.833L674.482 128.951L672.589 130.315L671.405 133.044L670.345 135.329L668.322 140.61L667.453 141.624L666.321 139.707C666.321 139.707 664.929 136.807 664.929 136.078C664.929 135.355 662.949 133.903 663.017 133.706C663.072 133.535 662.148 110.795 661.853 103.636L663.481 104.075L664.438 105.363C664.438 105.363 664.402 104.075 664.402 103.973C664.402 103.875 665.395 100.577 665.395 100.577L667.113 98.9591L670.479 95.1225L671.621 92.9211L670.83 90.3726L671.797 88.1711L672.5 86.3254L673.115 83.3331L674.352 79.6364L677.522 76.1158L680.775 71.1017L682.539 68.1095L686.149 67.5811V70.399L687.028 72.0686L688.434 71.7164L695.391 68.7241L700.231 73.5621L699.878 97.7591L704.016 98.555V100.489L704.983 106.206L707.626 106.732L710 110.253Z" fill="#2D4573"/>
<path d="M674.88 163.046L673.779 163.661C673.779 163.661 670.96 163.837 670.742 163.837C670.521 163.837 668.716 165.071 668.716 165.071C668.716 165.071 666.605 164.762 666.47 164.762C666.368 164.762 665.912 163.97 665.721 163.635L665.427 161.748L663.544 156.801H633.741L634.211 153.368L635.09 150.376L636.239 146.241L636.223 145.64L645.878 145.961L658.528 146.376L661.036 145.58L662.82 143.931H665.762L665.064 145.754L667.883 147.12L666.559 148.308L662.774 149.451L662.333 153.146H663.921L665.767 154.335L667.925 158.383L670.169 161.727L673.292 161.768L674.88 163.046Z" fill="#2D4573"/>
<path d="M665.721 163.635C665.669 163.542 665.638 163.485 665.638 163.485L664.888 164.234L663.658 165.6L661.414 168.323L660.442 165.95L659.563 164.721L658.549 165.289L658.528 165.336V156.801H663.544L665.427 161.748L665.721 163.635Z" fill="#2D4573"/>
<path d="M605.236 240.691L537.493 239.962L515.209 239.719C516.182 239.472 516.958 239.249 517.051 239.156C517.313 238.892 521.276 236.649 521.276 236.649L523.65 233.745L528.008 229.589L532.301 227.209L532.973 226.398L533.753 227.076L536.262 230.115L538.041 230.771L540.881 229.981C540.881 229.981 543.327 229.784 543.591 229.784C543.854 229.784 545.965 229.649 545.965 229.649L547.417 227.541C547.417 227.541 550.19 227.541 550.39 227.541C550.587 227.541 552.434 225.365 552.434 225.365L554.745 220.479L559.235 212.959L561.214 210.71L564.386 211.635C564.386 211.635 565.507 212.69 565.704 212.628C565.906 212.561 567.618 208.669 567.618 208.669L570.194 206.756L572.438 205.304L574.682 202.263L576.269 200.222L576.798 198.107L578.644 199.162L581.42 201.08L583.402 200.419L584.229 198.848L585.842 200.352L586.271 202.135L588.48 204.047L590.527 204.642L592.047 205.83V207.479L590.952 210.022L590.507 209.898L589.318 211.568L589.054 213.683L590.109 215.311L592.529 216.143L594.293 217.069L596.625 217.554L598.605 218.656L600.322 219.926L600.586 223.053L600.301 225.262L597.095 224.383L599.505 226.646L600.137 228.233L599.836 231.531L599.64 233.579L597.758 232.254L595.844 231.433L595.445 232.254L598.088 235.197L599.971 235.723L603.963 235.459L604.526 236.348L604.806 239.187C604.806 239.187 605.034 239.988 605.236 240.691Z" fill="#2D4573"/>
<path d="M607.494 220.279L606.441 222.521L605.427 225.251L604.547 229.122L604.724 230.751L606.568 228.684L608.286 226.218L609.388 223.271L610.578 220.413L610.65 220.31L607.494 220.279Z" fill="#2D4573"/>
<path d="M614.715 212.669L613.35 215.926L611.984 218.345L610.65 220.31L607.496 220.279L606.13 220.453L605.385 219.885C605.385 219.885 605.029 217.595 604.941 217.419C604.853 217.243 604.547 215.353 604.547 215.353L603.229 215.176L601.951 214.562L601.59 213.816L601.201 213.02L600.674 211.264L601.865 210.953L604.15 210.777L605.737 210.074L605.779 208.446L605.076 208.182L604.501 209.675L603.141 209.589L601.688 208.493L601.248 206.864L601.289 203.442L601.6 199.338L599.971 200.31L598.296 202.992L597.902 206.512L597.943 209.195L599.004 212.978L600.236 214.474L600.498 216.981L599.31 217.069L596.801 216.231L594.82 215.441L593.191 214.386L591.035 212.317L591.433 210.162L590.952 210.022L592.048 207.479V205.83L590.527 204.642L588.48 204.047L586.271 202.135L585.843 200.352L584.229 198.848L583.402 197.054L581.483 194.588H576.202L574.419 195.999L571.781 195.667L569.862 197.054H567.886L565.637 198.965L562.999 199.87V193.16H606.658L606.663 193.155L606.973 208.42V208.425L607.055 212.669H614.715Z" fill="#2D4573"/>
<path d="M615.154 208.094L614.844 212.364L614.715 212.669H607.055L606.973 208.425V208.42L606.662 193.155L608.42 191.29L609.888 190.959L609.61 194.939V197.492L610.091 198.283L609.74 198.635L610.49 201.845L613.26 204.972L615.154 208.094Z" fill="#2D4573"/>
<path d="M615.904 171.317L613.965 176.243L614.756 180.114L617.134 183.02L618.19 184.864L617.487 186.715L615.02 189.445L611.942 190.5L609.89 190.959L608.421 191.29L606.663 193.155L606.658 193.16H550.918V158.942L551.554 158.781L553.313 157.592C553.313 157.592 554.942 157.107 555.076 157.019C555.206 156.93 555.382 155.829 555.382 155.829L557.232 155.173L559.39 154.071C559.39 154.071 559.436 154.045 559.519 153.999V157.768H611.633L613.612 160.498L614.844 162.958C614.844 162.958 615.371 164.457 615.64 164.633C615.904 164.807 617.046 166.303 617.046 166.303L619.276 167.589L619.157 167.708L617.575 169.383L615.904 171.317Z" fill="#2D4573"/>
<path d="M658.528 156.801V165.336L657.189 168.193L655.073 168.675C655.073 168.675 653.356 169.6 649.395 169.295C649.131 169.284 643.323 169.735 643.323 169.735L637.733 170.479L633.948 171.802L631.046 173.746L630.865 173.87V172.458L633.069 169.998L633.948 167.093L633.508 158.471L633.741 156.801H658.528Z" fill="#2D4573"/>
<path d="M656.269 109.12L656.02 112.387L654.83 117.139C654.83 117.139 652.322 118.855 652.194 119.117C652.059 119.382 650.605 121.233 650.477 121.759C650.342 122.287 649.551 126.576 649.551 126.841C649.551 127.105 648.495 129.151 648.164 129.612C647.834 130.071 646.448 132.583 646.314 132.977C646.184 133.374 645.92 135.153 645.92 135.617C645.92 136.078 646.117 138.652 645.92 139.908C645.785 140.755 645.832 143.981 645.878 145.961L636.224 145.64L635.147 109.12H656.269Z" fill="#2D4573"/>
<path d="M667.453 141.624L665.99 143.335L665.762 143.931H662.82L661.036 145.58L658.527 146.376L645.877 145.961C645.831 143.981 645.784 140.755 645.919 139.908C646.116 138.652 645.919 136.078 645.919 135.617C645.919 135.153 646.183 133.374 646.313 132.977C646.447 132.583 647.833 130.071 648.163 129.612C648.494 129.151 649.55 127.105 649.55 126.841C649.55 126.576 650.341 122.287 650.476 121.759C650.604 121.233 652.058 119.382 652.193 119.117C652.321 118.855 654.829 117.139 654.829 117.139L656.019 112.387L656.268 109.12H656.847L658.294 106.087L659.22 104.303L660.906 104.536L661.765 103.611L661.853 103.636C662.148 110.795 663.072 133.535 663.017 133.706C662.95 133.902 664.929 135.355 664.929 136.078C664.929 136.807 666.322 139.707 666.322 139.707L667.453 141.624Z" fill="#2D4573"/>
<path d="M669.149 168.141L666.823 168.297H665.783L665.427 167.853C665.427 167.718 666.449 167.356 666.449 167.356H668.101L668.845 167.615L669.149 168.141Z" fill="#2D4573"/>
<path d="M149.364 285.258L148.572 287.807L149.011 290.01L150.243 290.801C150.243 290.801 151.296 291.327 151.296 291.592C151.296 291.856 151.473 293.793 151.473 293.793L149.802 294.76L148.469 295.483L148.484 295.375L119.146 297.552L118.685 294.983L117.496 289.24L109.242 281.517L105.746 280.861L104.489 277.164L99.804 276.7L90.0348 271.421H81.5174L79.4021 269.871L79.1746 261.621L76.7647 259.775L76.2009 256.938L71.2518 253.672L68.8418 249.117L63.4945 242.454L65.2114 238.757V235.521L61.9741 234.995L59.7294 233.278L57.6144 226.947L58.4107 225.034L61.3119 226.947L62.4344 225.954L59.3986 220.676L61.7773 217.906L57.8781 217.311L57.154 220.676H55.5043L51.4086 219.156V215.332L47.716 210.513L42.0376 202.068L41.6394 196.79L41.2411 192.169L38.6038 187.485L34.7095 184.249L35.7646 178.903L38.1745 174.418L38.5364 169.336L38.1745 165.842L37.7453 161.154L36.4525 157.659H86.1614V203.87L149.405 262.64L149.978 263.171V265.901L152.001 268.631C152.001 268.631 151.737 270.036 152.001 270.475C152.269 270.915 153.589 272.326 153.589 272.326L155.434 273.557L153.06 275.665L151.208 277.78L151.122 280.07L151.034 283.233L149.364 285.258Z" fill="#2D4573"/>
<path d="M89.8322 276.834C89.8322 276.834 88.9739 277.361 88.9739 277.594C88.9739 277.82 89.8013 278.219 89.8013 278.219L91.5182 277.76L92.2785 277.097L91.0889 276.637L89.8322 276.834Z" fill="#2D4573"/>
<path d="M156.846 157.659L156.323 233.346L156.318 234.271L156.05 247.732H147.997L149.405 262.64L86.1611 203.87V157.659H156.846Z" fill="#2D4573"/>
<path d="M297.511 173.782V233.346H214.943V173.782H297.511Z" fill="#2D4573"/>
<path d="M385.362 211.79L385.046 233.346H297.511V188.472H376.963L377.967 189.621L380.698 191.29L381.84 193.134L379.197 195.161L381.225 197.979L384.747 201.319L385.362 211.79Z" fill="#2D4573"/>
<path d="M274.184 108.563V173.782H191.527V108.563H274.184Z" fill="#2D4573"/>
<path d="M363.418 119.713L363.094 126.644L363.418 130.34V133.307L361.857 134.362L361.769 136.739L363.418 139.376C363.418 139.376 362.56 142.28 362.56 142.72C362.56 143.161 361.857 146.065 361.857 146.329C361.857 146.514 362.344 147.895 362.627 148.681L359.395 146.638L355.698 145.186L351.338 143.47H348.039L345.002 145.186L343.287 144.261L341.435 142.808L338.533 141.753H274.184V93.2716H361.862L362.033 94.9671C362.033 94.9671 360.316 96.7507 360.186 97.1444C360.052 97.5415 358.537 99.3251 358.537 99.3251L362.033 102.361L363.418 105.26L363.026 108.563L363.418 119.713Z" fill="#2D4573"/>
<path d="M297.512 188.472V173.782H274.184V141.753H338.533L341.435 142.808L343.287 144.26L345.002 145.186L348.039 143.47H351.338L355.698 145.186L359.395 146.638L362.627 148.681C362.741 149.005 362.824 149.233 362.824 149.233L364.235 151.517L365.643 155.566L369.164 166.303C369.164 166.303 370.572 171.229 370.484 171.931C370.395 172.639 370.489 177.565 370.489 177.565L371.311 179.432L371.724 180.378L374.971 186.188L376.963 188.472H297.512Z" fill="#2D4573"/>
<path d="M537.493 239.962L536.987 242.19L533.159 245.36L530.78 247.338H527.611L526.954 248.785H523.85C523.85 248.785 522.729 250.11 522.729 250.501C522.729 250.9 521.276 252.352 521.276 252.352L516.125 254.462L511.236 256.179C511.236 256.179 510.317 257.893 510.317 258.292C510.317 258.684 508.072 259.832 508.072 259.832C508.072 259.832 506.748 258.995 506.748 259.832C506.748 260.288 506.469 261.927 506.227 263.306H436.834C437.207 262.79 438.09 261.517 438.09 261.238C438.09 260.887 437.915 258.684 437.915 258.684L442.115 250.439L442.968 248.59L444.162 246.016L444.426 243.576L444.953 241.461H462.205L462.915 239.156L515.209 239.719L537.493 239.962Z" fill="#2D4573"/>
<path d="M442.115 250.439L437.916 258.684C437.916 258.684 438.09 260.887 438.09 261.238C438.09 261.517 437.207 262.79 436.834 263.306C436.741 263.446 436.679 263.529 436.679 263.529L434.481 264.67C434.481 264.67 433.69 266.165 433.69 266.516C433.69 266.868 433.333 267.84 433.333 267.84L432.015 270.651C432.015 270.651 430.432 272.853 430.256 273.117C430.08 273.381 428.757 273.731 428.669 274.26C428.58 274.786 428.228 276.197 428.228 276.549C428.228 276.902 427.572 279.801 427.195 280.07C426.822 280.332 425.416 282.793 425.416 282.793L425.678 285.084C425.678 285.084 426.295 287.368 426.295 287.721C426.295 288.071 426.207 290.537 426.207 290.537L426 291.151H391.784V286.313L390.817 283.409H388.796L386.505 282.618V250.854L385.362 244.873V241.482L438.045 242.278L438.354 243.947V245.487L436.99 246.501L435.976 247.779V248.611L438.354 248.832L440.774 248.569L442.968 248.59L442.115 250.439Z" fill="#2D4573"/>
<path d="M449.313 236.447L448.719 241.461H444.953L444.426 243.576L444.162 246.016L442.968 248.59L440.775 248.569L438.354 248.832L435.976 248.611V247.779L436.99 246.501L438.354 245.487V243.947L438.045 242.278L385.362 241.482V241.266L385.01 235.899L385.046 233.346L385.362 211.791L384.747 201.319L381.225 197.979L379.197 195.162L381.84 193.134L380.698 191.29L377.967 189.621L376.963 188.473L374.971 186.188L371.724 180.378L371.311 179.432H417.819L420.921 180.822L422.179 182.006C422.179 182.668 422.246 184.843 422.246 185.107C422.246 185.372 422.111 190.453 422.111 190.917C422.111 191.377 424.882 194.283 424.95 194.479C425.017 194.676 428.451 198.174 428.451 198.174L430.298 200.284L430.892 203.784L431.421 205.236L434.658 204.181L436.307 205.236L437.361 207.811C437.361 207.811 435.185 211.837 435.185 212.034C435.185 212.229 435.711 216.52 435.711 216.52L438.686 218.872L443.041 222.589L445.088 225.69L445.482 228.399L446.603 232.488V233.94H448.786L448.951 234.736L449.313 236.447Z" fill="#2D4573"/>
<path d="M468.723 206.952L467.797 209.413C467.797 209.413 466.612 211.264 466.344 211.438C466.08 211.614 465.112 212.757 465.112 212.757C465.112 212.757 464.145 214.256 464.145 214.52C464.145 214.783 463.09 217.948 463.09 217.948V221.028L462.205 223.844L461.854 225.778C461.854 225.778 462.205 226.662 461.854 226.838C461.502 227.014 458.068 227.979 458.068 227.979L457.277 231.94L455.432 232.467L452.26 230.797C452.26 230.797 450.415 230.973 450.415 231.237C450.415 231.5 449.975 233.346 449.975 233.346L448.95 234.736L448.786 233.94H446.603V232.488L445.482 228.399L445.088 225.69L443.041 222.589L438.686 218.871L435.711 216.52C435.711 216.52 435.185 212.229 435.185 212.034C435.185 211.837 437.361 207.811 437.361 207.811L436.307 205.236L434.658 204.181L431.42 205.236L430.892 203.784L430.298 200.284L428.451 198.174C428.451 198.174 425.017 194.676 424.95 194.479C424.882 194.283 422.111 191.377 422.111 190.917C422.111 190.453 422.246 185.371 422.246 185.107C422.246 184.843 422.179 182.667 422.179 182.006C422.179 181.35 424.754 179.37 424.754 179.37L427.66 175.54L428.845 172.308C428.845 172.308 426.337 169.538 426.337 169.336C426.337 169.139 428.054 166.498 428.254 166.37C428.451 166.235 432.479 164.849 432.479 164.849C432.479 164.849 435.516 162.673 435.711 162.538C435.908 162.409 436.705 158.186 436.705 158.186V155.679L434.658 152.113C434.658 152.113 432.987 150.449 432.243 149.606H465.561L465.553 150.511V153.059L466.168 156.181L467.532 160.228L468.66 161.805L467.491 192.696L466.876 200.702L467.491 204.135L468.723 206.952Z" fill="#2D4573"/>
<path d="M501.07 161.815V206.688L498.474 208.358L496.277 208.669H494.472C494.472 208.669 493.546 208.622 493.458 208.669C493.37 208.71 493.281 210.121 493.235 210.385C493.193 210.647 492.402 212.493 492.402 212.493L489.935 213.372C489.935 213.372 488.794 214.474 488.794 214.648C488.794 214.824 488.089 216.763 488.089 216.763L487.603 218.871H483.952L482.323 217.115L481.005 218.081L479.814 219.662L479.023 220.986C479.023 220.986 477.22 219.488 477.085 219.534C476.955 219.576 474.927 220.986 474.927 220.986L473.475 221.731H471.364L469.69 220.764L467.268 219.926L464.895 220.81H463.089V217.948C463.089 217.948 464.145 214.783 464.145 214.52C464.145 214.256 465.112 212.757 465.112 212.757C465.112 212.757 466.08 211.614 466.344 211.438C466.612 211.264 467.797 209.413 467.797 209.413L468.723 206.952L467.491 204.135L466.876 200.702L467.491 192.696L468.66 161.805L469.073 162.383L470.481 163.397L472.196 164.058L473.872 163.397L476.03 162.829L477.57 161.945C477.57 161.945 477.602 161.898 477.664 161.815H501.07Z" fill="#2D4573"/>
<path d="M532.973 226.398L532.301 227.209L528.008 229.589L523.65 233.745L521.276 236.649C521.276 236.649 517.313 238.892 517.051 239.156C516.958 239.249 516.182 239.472 515.209 239.719L462.915 239.156L462.205 241.461H448.719L449.313 236.447L448.95 234.736L449.975 233.346C449.975 233.346 450.415 231.5 450.415 231.237C450.415 230.973 452.26 230.797 452.26 230.797L455.432 232.467L457.276 231.94L458.068 227.979C458.068 227.979 461.502 227.014 461.854 226.838C462.205 226.662 461.854 225.778 461.854 225.778L462.205 223.844L463.089 221.028V220.81H464.894L467.268 219.926L469.69 220.764L471.364 221.731H473.475L474.927 220.986C474.927 220.986 476.955 219.576 477.085 219.534C477.22 219.488 479.023 220.986 479.023 220.986L479.814 219.662L481.004 218.081L482.322 217.115L483.951 218.871H487.603L488.089 216.763C488.089 216.763 488.793 214.824 488.793 214.648C488.793 214.474 489.935 213.372 489.935 213.372L492.402 212.493C492.402 212.493 493.193 210.647 493.235 210.385C493.281 210.121 493.369 208.71 493.458 208.669C493.546 208.622 494.472 208.669 494.472 208.669H496.277L498.474 208.358L501.07 206.688V202.408L504.308 202.797L506.816 205.433L509.324 207.479L512.297 208.736H515.596L518.701 209.128H521.933L523.188 208.203L524.508 210.71L526.096 212.229H526.111L526.049 214.142L526.488 217.906L528.075 221.204L530.186 223.582L531.774 225.365L532.973 226.398Z" fill="#2D4573"/>
<path d="M584.229 198.848L583.401 200.419L581.42 201.08L578.644 199.162L576.797 198.107L576.269 200.222L574.681 202.263L572.437 205.304L570.193 206.756L567.618 208.669C567.618 208.669 565.906 212.561 565.704 212.628C565.507 212.69 564.386 211.635 564.386 211.635L561.214 210.71L559.235 212.959L554.745 220.479L552.434 225.365C552.434 225.365 550.587 227.541 550.39 227.541C550.19 227.541 547.417 227.541 547.417 227.541L545.964 229.649C545.964 229.649 543.853 229.784 543.591 229.784C543.327 229.784 540.881 229.981 540.881 229.981L538.041 230.771L536.261 230.115L533.753 227.076L532.972 226.398L531.774 225.365L530.186 223.582L528.075 221.204L526.488 217.906L526.049 214.142L526.111 212.229H527.678L530.186 211.635L531.442 208.14L532.43 203.479L536.391 200.352C536.391 200.352 540.354 198.635 540.616 198.439C540.881 198.242 544.118 196.263 544.118 196.263L546.958 193.357L548.276 188.737L549.134 185.506L549.993 182.668L549.594 180.492L550.587 178.574L550.919 178.17V193.16H562.999V199.87L565.636 198.965L567.885 197.054H569.862L571.781 195.667L574.419 195.999L576.201 194.588H581.482L583.401 197.054L584.229 198.848Z" fill="#2D4573"/>
<path d="M574.22 280.034L572.768 280.374L569.644 282.484L567.663 286.619L565.372 291.151L563.04 291.942L560.005 293.572L556.922 296.694L553.493 298.498L551.729 298.937L551.467 300.565L549.884 301.093L548.032 299.909L547.768 302.942L546.816 304.643L543.895 303.821L543.104 300.301L541.257 295.815L537.647 289.834L532.895 282.706L528.138 279.362L525.5 274.874L522.769 270.387L518.543 267.84V265.901L521.58 263.306L523.385 261.766L529.901 259.832L535.883 260.272H541.169L545.747 261.414C545.747 261.414 547.329 264.496 547.592 264.582C547.856 264.67 551.114 265.549 551.114 265.549L557.362 265.813L561.767 266.428L566.081 269.86L571.361 275.935L574.22 280.034Z" fill="#2D4573"/>
<path d="M645.943 173.366L642.467 173.846L639.297 174.11L635.513 174.287L632.605 175.036L631.685 175.196L630.418 177.294L631.441 178.948L635.64 179.042L640.792 177.543L645.591 175.785L647.045 174.245L645.943 173.366Z" fill="#2D4573"/>
<path d="M636.239 146.241L635.09 150.376L634.211 153.369L633.741 156.801L633.507 158.471L633.948 167.093L633.069 169.998L630.864 172.458V175.411L630.823 175.457L630.735 175.556L630.001 176.393L629.923 176.269V176.129L629.645 175.792L628.621 174.584L624.969 171.405L619.69 167.827L619.275 167.589L617.047 166.303C617.047 166.303 615.903 164.807 615.641 164.633C615.371 164.457 614.844 162.958 614.844 162.958L613.613 160.498L611.631 157.768H559.518V153.999C559.984 153.741 561.551 152.857 561.588 152.707C561.634 152.531 562.823 151.518 562.823 151.518L564.187 150.2L566.345 148.484L568.941 146.535L570.062 145.316L570.026 144.395L569.499 143.703L569.437 142.777L568.806 141.258L567.948 139.707L567.886 138.585L567.818 137.364L569.763 137.463L572.111 137.333L573.198 136.311H575.576L579.929 136.441L581.218 137.268L584.124 137.66L585.081 138.254L587.656 138.223L589.275 137.929L590.133 137.231L592.543 137.035L594.029 136.77L595.445 136.342L596.934 135.617L599.178 134.956L600.068 133.602L601.424 133.473L601.951 131.131V128.49L602.809 126.576L601.951 125.456L600.431 124.795L601.424 123.146C601.424 123.146 602.478 122.42 602.478 122.22C602.478 122.023 603.141 120.706 603.141 120.706L603.797 119.382L606.306 117.603L608.949 115.158L611.719 112.259L616.209 110.077L619.778 109.12H635.147L636.223 145.64L636.239 146.241Z" fill="#2D4573"/>
<path d="M627.225 179.902L625.715 181.127L627.431 181.877V185.965L625.848 192.919L623.381 196.128L622.901 198.371L620.656 199.735L618.5 203.696L616.648 204.749L614.803 201.231L612.295 199.297L610.267 198.107L610.091 198.283L609.61 197.492V194.939L609.888 190.959L611.942 190.5L615.019 189.445L617.486 186.715L618.189 184.864L617.135 183.02L614.756 180.114L613.965 176.243L615.903 171.317L617.574 169.383L619.156 167.708L619.275 167.589L619.69 167.827L624.969 171.405L628.621 174.584L629.645 175.792L629.923 176.129V176.269L630.001 176.393L628.958 177.571L627.225 179.902Z" fill="#2D4573"/>
<path d="M136.147 428.698C136.22 428.577 136.268 427.605 136.268 427.605L135.006 426.514L133.888 425.687L130.901 424.376L130.002 423.842C130.002 423.842 128.788 420.274 128.788 420.201C128.788 420.129 126.237 415.37 126.237 415.37L124.561 412.141L123.298 410.732C123.298 410.732 121.841 409.883 121.768 409.641C121.695 409.398 120.675 407.723 120.651 407.624C120.627 407.528 119.267 406.338 119.267 406.338C119.267 406.338 119.194 405.537 119.194 405.464C119.194 405.392 118.562 404.323 118.562 404.323L117.882 404.007L114.894 405.148L115.259 405.732L114.506 406.726L114.482 407.94L113.51 408.087L111.446 409.641L110.741 407.334L108.725 405.245L107.559 404.081C107.559 404.081 107.365 403.522 107.341 403.425C107.316 403.328 105.908 401.992 105.908 401.992L106.199 400.221L103.892 400.39L103.017 401.241L101.487 400.488L101.196 401.046L99.6736 400.543V326.045L99.2364 326.402L98.8154 326.482L98.4105 325.915L97.9733 325.397L97.5038 324.912L96.1274 324.815L94.8482 323.229L91.6746 321.659L87.2054 322.921L84.3879 321.659L80.3074 320.785H76.4213L73.701 318.65H70.0091H66.6087H63.5969L64.1797 317.581L62.5281 316.901V314.28L59.7107 313.696L57.1847 314.668L55.2416 315.735V313.696L54.4643 311.753H53.2014L50.8697 310.783L49.0237 309.813L47.2749 310.201L45.5262 312.337L43.583 314.28L40.7008 314.927H38.0452L35.9079 317.063C35.9079 317.063 34.6125 318.099 34.5477 318.292C34.4829 318.487 31.633 320.041 31.633 320.041H29.7547L28.9126 321.854L28.0707 323.343L26.9048 325.478C26.9048 325.478 26.4514 327.357 26.4514 327.55C26.4514 327.745 25.4151 330.529 25.4151 330.529C25.4151 330.529 23.9901 331.565 23.9255 331.824C23.8607 332.083 22.3062 333.053 22.3062 333.053L20.1689 333.312L17.9666 333.701L15.894 333.442L15.5053 335.643L14.7282 337.131V337.908L15.4405 338.621L16.8655 340.046L17.9666 340.887L20.6222 343.282L21.9823 344.513L23.0186 346.326L23.8607 347.878L24.3788 349.043L25.2208 349.561L27.2287 349.95H28.5241L29.7547 349.886L30.5967 349.756L30.791 350.792L30.4671 352.151L31.1149 353.317L32.2808 353.64L32.7988 353.381L33.5114 353.317L34.2238 353.576H35.6487L35.7783 354.482L35.0657 355.178H33.5762L32.1512 354.546L30.6615 354.417C30.6615 354.417 29.8843 355.033 30.4024 355.178C30.9206 355.323 32.3456 355.518 32.3456 355.518L32.6693 356.425L31.633 356.684L30.9854 357.202L30.208 357.784L28.7831 358.043H27.2935L24.4436 357.979L23.6016 357.331L23.7312 356.036L23.9901 353.964L22.6301 353.769C22.6301 353.769 19.3268 354.353 19.262 354.612C19.1972 354.871 18.5496 355.582 18.5496 355.582L16.6066 356.359L15.8292 357.136L14.0156 357.979L12.785 358.626L12.2669 359.338L11.1658 359.921L10 361.15V362.25L11.8135 363.416L13.4975 363.804L14.8577 363.934L16.2179 364.581L14.469 365.165L14.2747 365.747L14.0804 366.458L14.6634 367.494L14.8577 368.919L15.3758 369.632L17.5781 370.279L19.3268 370.861L21.5291 370.668L22.5653 369.891L24.3788 369.825L25.8038 370.15L26.9696 371.186L27.8116 371.574L27.9411 370.15L28.5889 369.307L29.4956 368.725L30.4671 368.207L31.6978 368.078L32.7341 367.753L33.3818 368.53V369.761L32.3456 370.343L31.5034 370.668L32.2808 371.186L33.1875 372.415L33.2523 374.033L33.7703 375.198V376.559L32.7988 377.659L31.2443 378.306H29.6252L28.4593 378.177L28.0707 379.083L27.4231 380.183L26.9696 380.896L26.1924 381.219L25.0266 381.349L24.2492 380.767L23.2777 379.795L22.1119 380.054C22.1119 380.054 21.0756 381.285 21.0756 381.333C21.0756 381.381 20.5411 382.239 20.5411 382.369C20.5411 382.498 20.4441 383.194 20.4441 383.194V383.712C20.4441 383.712 20.0068 384.601 19.9583 384.683C19.9098 384.764 18.9383 385.589 18.922 385.637C18.9058 385.686 17.8372 386.722 17.7237 386.998C17.6104 387.273 16.234 390.607 16.3798 390.85C16.5256 391.092 16.5255 393.715 16.6713 393.763C16.817 393.811 17.6914 394.588 17.9343 394.733C18.1771 394.88 19.2457 395.559 19.2457 395.559L20.3145 395.995L20.0231 397.113L18.9543 398.278C18.9543 398.278 18.2742 398.813 18.3715 399.055C18.4686 399.299 19.343 399.929 19.343 399.929C19.343 399.929 20.4603 400.284 20.6546 400.543C20.849 400.802 21.6747 402.016 21.6747 402.016L22.3062 402.94L22.7433 404.007H25.0266L26.5324 403.619C26.5324 403.619 27.4068 402.648 27.5526 402.648C27.6982 402.648 28.767 401.434 28.9126 401.628C29.0584 401.823 29.69 404.007 29.69 404.007L30.3701 405.172V406.241L29.9328 407.358V408.717L30.9044 409.106L30.3701 410.271L29.69 411.777L31.293 412.019L32.2645 410.756L33.8676 409.883L35.4707 409.057L35.7621 410.028L37.3166 410.708L37.4137 410.32C37.4137 410.32 38.6768 410.903 38.6768 411.048C38.6768 411.193 39.2111 412.019 39.2596 412.262C39.3081 412.505 40.2796 413.379 40.2796 413.379L40.6683 412.747L40.474 411.582V410.805L41.1541 409.689L41.3971 410.805L41.8343 411.485L42.7088 411.922L44.0688 411.388L45.3319 410.611L46.2548 410.416L45.8176 411.68L44.6031 414.398L44.2631 417.166L43.6803 418.816L42.8544 419.788L41.7371 420.419L41.2028 421.682L40.8627 423.041H39.8426L38.5795 424.11C38.5795 424.11 37.0252 424.644 36.9279 424.789C36.8308 424.935 35.7621 425.566 35.665 425.712C35.5677 425.857 35.1305 426.828 35.1305 426.828L34.7906 427.897L34.3048 428.478H33.4304L31.9731 428.285L31.0016 428.478L29.5442 429.499L28.5241 430.469L27.9897 431.538L26.9211 432.412L26.0952 433.092L25.1722 433.674L23.812 434.014L21.8205 434.549L20.6546 435.471L20.0231 436.83L21.0431 437.122L22.3062 436.54L23.6177 436.005H24.735L26.1924 434.306C26.1924 434.306 27.6982 433.724 27.8926 433.724C28.0869 433.724 29.4471 433.432 29.4471 433.432L30.4186 432.072L31.1472 431.005C31.1472 431.005 31.5359 429.742 31.7302 430.032C31.9244 430.324 31.633 431.246 31.7788 431.295C31.9244 431.345 32.7503 431.683 32.9446 431.683C33.139 431.683 34.2077 430.906 34.2077 430.906L35.4707 430.179L36.9765 429.451C36.9765 429.451 38.7738 428.917 38.9682 428.917C39.1625 428.917 41.2999 428.092 41.2999 428.092L42.4657 426.876L42.2228 426.002L41.5427 425.226C41.5427 425.226 42.3201 425.226 42.563 425.129C42.8059 425.032 44.1173 424.789 44.1173 424.789L45.5262 423.915L46.2548 423.041L48.8779 421.147L49.3152 418.963L50.6266 418.234L52.1326 416.972C52.1326 416.972 53.2014 415.71 53.3472 415.662C53.4928 415.612 54.6749 415.273 54.8367 415.126C54.9988 414.981 56.1159 413.524 56.1159 413.524L56.796 412.069L58.4963 410.175L57.9618 409.301L56.2617 408.912C56.2617 408.912 55.9217 408.184 56.0673 408.037C56.2131 407.892 56.6504 406.29 56.796 406.145C56.9418 405.998 57.9133 405.221 58.0591 405.076C58.2049 404.931 59.2735 404.494 59.2735 404.494L59.9536 403.619C59.9536 403.619 61.1679 402.6 60.9736 402.308C60.7794 402.016 60.7794 400.949 60.7794 400.949L61.848 400.027L62.6739 398.522L63.9854 396.871L66.6087 394.492L68.0174 393.956L69.2319 394.055L70.6405 395.462L71.4664 395.995C71.4664 395.995 71.7578 396.627 71.4664 396.627C71.175 396.627 69.4261 396.239 69.4261 396.239L68.4546 396.336L67.823 395.899L65.9771 397.696L65.4428 398.958C65.4428 398.958 65.4428 399.88 65.4428 400.075C65.4428 400.269 65.0056 401.289 64.9571 401.678C64.9085 402.066 63.8398 403.669 63.7912 403.814C63.7427 403.959 63.8398 404.736 64.1797 404.784C64.5198 404.834 65.4428 404.736 65.5886 404.639C65.7342 404.542 65.9286 404.446 65.9286 404.736C65.9286 405.027 65.7342 405.561 65.7342 405.708C65.7342 405.853 64.5684 406.193 64.5684 406.193L63.6454 407.115C63.6454 407.115 63.694 408.135 63.9854 408.135C64.277 408.135 66.0258 407.795 66.1715 407.747C66.3172 407.699 67.6287 407.067 67.7745 406.97C67.9203 406.873 69.2319 405.949 69.2319 405.949L71.175 403.814L72.0494 402.892C72.0494 402.892 74.0409 402.842 74.5267 402.94C75.0125 403.037 76.2756 402.503 76.3241 402.308C76.3726 402.115 76.1783 400.949 76.1783 400.949C76.1783 400.949 76.2756 399.832 76.4213 399.784C76.567 399.735 76.567 399.103 76.3726 399.055C76.1783 399.007 75.5469 398.326 75.5469 398.133C75.5469 397.938 75.9841 397.064 76.3241 396.919C76.6641 396.772 77.5872 396.384 77.8299 396.239C78.0729 396.094 78.5587 395.947 78.8016 395.947C79.0445 395.947 80.016 396.191 80.5017 395.995C80.9875 395.802 81.0847 395.51 81.3761 395.705C81.6676 395.899 81.3761 397.064 81.3761 397.064C81.3761 397.064 80.3561 397.453 80.7931 397.793C81.2305 398.133 81.9592 398.375 82.4449 398.326C82.9307 398.278 83.9507 398.473 83.6593 398.667C83.3679 398.862 82.8334 399.103 82.202 399.347C81.5705 399.589 79.8216 399.832 80.4046 400.221C80.9875 400.609 81.1333 400.852 81.9106 400.754C82.6878 400.657 84.3879 400.027 84.3879 400.027L85.8452 400.706L87.4484 401.338L88.2741 401.92L90.12 402.163L94.1519 402.405C94.1519 402.405 96.4352 402.6 96.5323 402.793C96.6294 402.988 97.941 403.037 98.1839 403.133C98.4268 403.23 99.6736 404.105 99.6736 404.105L101.099 404.639L102.701 404.446C102.701 404.446 104.062 403.765 104.207 404.007C104.353 404.25 104.159 405.027 104.207 405.221C104.256 405.416 103.867 405.901 104.062 406.048C104.256 406.193 105.616 407.455 105.616 407.455L108.628 409.057L110.182 410.028C110.182 410.028 111.494 411.728 111.494 411.874C111.494 412.019 114.02 413.719 114.02 413.719H115.477L116.012 412.214C116.012 412.214 114.749 410.903 114.603 410.756C114.457 410.611 113.777 409.883 114.117 409.883C114.457 409.883 116.546 409.883 116.546 409.883V411.68L117.469 413.087L119.218 413.768C119.218 413.768 119.655 413.136 119.655 412.991C119.655 412.844 118.926 410.951 118.926 410.951L118.295 408.961C118.295 408.961 119.218 410.028 119.364 410.175C119.509 410.32 120.287 411.63 120.287 411.63L120.869 413.087V414.058C120.869 414.058 120.384 414.786 120.384 414.933C120.384 415.078 120.529 416.584 120.529 416.584L121.21 418.575L121.452 420.71C121.452 420.71 122.375 421.391 122.57 420.954C122.764 420.517 123.395 418.379 123.395 418.379L122.764 416.34L123.395 415.563C123.395 415.563 124.076 416.195 124.076 416.389C124.076 416.584 124.561 417.894 124.561 417.894L124.998 419.352L125.921 420.807L126.699 422.119L127.719 423.283L128.399 424.352V426.198C128.399 426.198 127.816 427.071 127.816 427.363C127.816 427.653 128.399 428.77 128.399 428.77L129.249 430.445C129.249 430.445 129.881 430.956 129.953 431.029C130.026 431.101 130.901 432.047 130.901 432.047L132.237 432.583L132.989 433.966L133.937 435.155C133.937 435.155 134.52 435.034 134.544 434.938C134.568 434.839 136.05 432.534 136.05 432.534C136.05 432.534 136.438 430.785 136.438 430.616C136.438 430.445 136.074 428.819 136.147 428.698Z" fill="#2D4573"/>
<path d="M16.3067 400.657L15.9424 400.196L14.9222 400.44L14.0236 400.537C14.0236 400.537 13.8536 401.241 13.7563 401.289C13.6593 401.338 12.0806 401.531 12.0806 401.531C12.0806 401.531 12.8577 402.6 12.9306 402.745C13.0035 402.892 14.0236 403.693 14.3637 403.789C14.7037 403.886 15.5537 404.007 15.821 404.007C16.0882 404.007 16.841 403.619 16.9383 403.619C17.0354 403.619 17.4726 402.964 17.4726 402.793C17.4726 402.624 17.4726 401.434 17.4726 401.434L17.0597 400.682L16.3067 400.657Z" fill="#2D4573"/>
<path d="M61.929 412.31L61.7347 411.582L60.8927 412.133C60.8927 412.133 60.7631 412.861 60.7631 412.925C60.7631 412.991 60.0831 413.719 60.0183 413.799C59.9535 413.88 59.2411 414.415 59.2411 414.464C59.2411 414.512 59.2411 414.982 59.0628 415.03C58.8849 415.078 58.4962 415.322 58.5771 415.499C58.6581 415.677 58.3992 416 58.3181 416.066C58.2371 416.13 57.5247 416.487 57.5247 416.487L56.6826 416.696C56.6826 416.696 56.5693 417.295 56.6664 417.506C56.7636 417.716 56.9903 418.089 56.9417 418.169C56.8932 418.25 56.2941 418.25 56.2616 418.202C56.2293 418.153 55.3387 417.927 55.3387 417.927L54.5777 418.671C54.5777 418.671 54.2861 419.852 54.2861 419.901C54.2861 419.951 54.5777 421.294 54.5777 421.294L55.1283 422.232L55.6301 422.782C55.6301 422.782 56.2293 423.219 56.2941 423.219C56.3589 423.219 57.2171 422.668 57.2171 422.572C57.2171 422.475 57.055 421.731 57.6866 421.617C58.3181 421.503 58.8039 421.487 58.8524 421.52C58.901 421.553 59.403 421.65 59.4354 421.472C59.4677 421.294 59.6944 420.03 59.8239 420.03C59.9535 420.03 60.7469 420.047 60.7469 420.047L61.1518 419.788V419.253L62.3014 418.735C62.3014 418.735 62.5605 418.445 62.5281 418.38C62.4958 418.316 61.848 417.943 61.848 417.943L61.3462 417.312L61.3622 416.681L60.3745 416.437C60.3745 416.437 59.905 416.081 59.9212 416.033C59.9373 415.985 60.4555 415.192 60.5526 415.175C60.6498 415.159 61.2651 415.127 61.6051 415.094C61.9452 415.063 62.0585 414.317 62.0585 414.317C62.0585 414.317 62.8357 414.69 62.8843 414.674C62.933 414.657 63.0786 413.346 63.0786 413.346H61.5403L61.929 412.31Z" fill="#2D4573"/>
<path d="M128.715 431.198L128.059 429.791L127.549 428.601L126.825 427.8L126.067 426.683L125.217 426.002C125.217 426.002 124.367 425.857 124.416 426.149C124.464 426.439 124.586 427.703 124.586 427.703C124.586 427.703 123.954 428.358 124.076 428.358C124.197 428.358 124.877 429.281 124.877 429.281C124.877 429.281 125.339 429.742 125.387 429.815C125.436 429.887 126.067 430.906 126.067 430.906C126.067 430.906 126.359 431.659 126.262 431.659C126.164 431.659 125.149 431.757 125.171 431.854C125.193 431.951 125.994 434.257 125.994 434.257L126.869 435.35C126.869 435.35 128.496 435.276 128.569 435.35C128.642 435.423 129.589 434.499 129.589 434.427C129.589 434.354 129.031 432.339 129.031 432.339L128.715 431.198Z" fill="#2D4573"/>
<path d="M124.294 424.984C124.294 425.081 125.168 425.348 125.168 425.348L126.237 424.861L127.767 424.547L127.063 423.333L126.237 422.409L124.61 421.657C124.61 421.657 123.322 421.22 123.322 421.294C123.322 421.367 123.638 422.798 123.711 422.798C123.784 422.798 124.06 423.647 124.06 423.647L123.007 423.235L122.156 422.798C122.156 422.798 121.768 423.915 121.841 423.988C121.914 424.06 122.618 425.226 122.618 425.226C122.618 425.226 122.229 426.464 122.229 426.61C122.229 426.755 122.74 426.926 122.74 426.926L123.492 425.761L123.711 424.595C123.711 424.595 124.294 424.885 124.294 424.984Z" fill="#2D4573"/>
<path d="M120.408 422.532C120.408 422.385 120.092 420.614 120.092 420.614L119.825 419.545C119.825 419.545 119.922 418.695 119.922 418.476C119.922 418.259 119.801 417.021 119.801 417.021L119.679 415.636L118.756 414.859L117.833 414.446L116.595 414.034L115.404 414.835L114.919 415.686C114.919 415.686 115.574 417.53 115.647 417.578C115.72 417.627 116.279 418.21 116.376 418.307C116.473 418.404 117.08 419.205 117.08 419.205C117.08 419.205 117.25 420.469 117.226 420.565C117.202 420.662 117.153 421.803 117.153 421.803C117.153 421.803 117.736 421.544 117.76 421.285C117.785 421.026 118.076 420.783 118.222 420.807C118.368 420.831 118.513 421.009 118.659 421.285C118.805 421.56 119.048 421.657 118.829 422.021C118.611 422.385 118.586 423.162 118.635 423.406C118.683 423.647 119.096 424.105 119.096 424.105C119.096 424.105 119.898 424.183 119.947 424.4C119.995 424.619 120.092 425.445 120.092 425.541C120.092 425.638 120.651 426.586 120.699 426.464C120.748 426.343 120.918 425.201 120.894 425.105C120.869 425.008 120.408 422.677 120.408 422.532Z" fill="#2D4573"/>
<path d="M305.599 452.561L302.44 450.947L301.117 448.889L299.94 447.347L298.251 446.613L299.572 444.483L297.368 441.618L293.179 438.973L290.02 437.063L286.345 435.596L282.671 434.273L279.731 432.583L277.674 430.894H275.91L274.882 432.289L275.323 435.228L277.161 437.799L276.131 440.442L272.897 443.16L270.399 445.805L271.648 449.55L273.191 453.15L275.029 458.071L275.102 461.744L274.514 466.152L275.837 468.208L279.658 470.779L282.45 471.513L283.92 469.824L286.713 466.298L289.8 463.947L292.813 461.597C292.813 461.597 295.826 461.597 296.119 461.597C296.413 461.597 298.251 460.57 298.251 460.57L300.896 459.247L304.644 456.823C304.644 456.823 305.966 454.692 305.966 454.399C305.966 454.105 305.599 452.561 305.599 452.561Z" fill="#2D4573"/>
<path d="M271.796 417.378C271.796 417.159 271.796 414.956 271.796 414.956L268.562 413.633L267.166 411.723L265.328 410.694L261.875 410.107L259.082 411.502L257.907 410.254L256.069 408.638L255.554 408.123L253.644 408.565L252.763 411.209L254.894 414.22C254.894 414.22 256.658 414.956 256.877 414.881C257.099 414.809 258.935 414.886 258.935 414.886V416.865L259.596 419.802L260.773 420.904H263.418L267.166 419.949L269.958 418.775C269.958 418.775 271.796 417.599 271.796 417.378Z" fill="#2D4573"/>
<path d="M253.424 421.786L252.763 422.447L252.561 423.556C252.561 423.556 254.452 423.475 254.673 423.549C254.894 423.622 256.511 423.164 256.511 423.164V421.308L255.573 420.776L253.424 421.786Z" fill="#2D4573"/>
<path d="M248.592 412.531C248.592 412.393 246.992 411.649 246.992 411.649L245.795 410.988H245.367H243.163L242.391 411.319C242.391 411.319 242.529 412.338 242.667 412.504C242.805 412.669 243.548 413.799 243.686 413.963C243.824 414.128 244.182 415.175 244.182 415.175C244.182 415.175 244.32 416.168 244.431 416.221C244.541 416.276 245.037 416.525 245.367 416.525C245.699 416.525 247.324 416.359 247.49 416.221C247.654 416.085 248.399 415.479 248.399 415.479C248.399 415.479 249.226 413.743 249.198 413.757C249.171 413.771 248.592 412.669 248.592 412.531Z" fill="#2D4573"/>
<path d="M250.558 403.404L249.381 403.332H247.03L245.322 403.368L242.878 402.798L241.15 402.45L239.682 402.431L237.605 402.248L236.963 401.838L236.871 401.844C236.871 401.844 236.429 401.807 236.429 401.935C236.429 402.065 236.503 403.111 236.503 403.166C236.503 403.221 235.603 403.772 235.603 403.772C235.603 403.772 235.089 404.708 235.108 404.782C235.125 404.855 234.978 405.59 234.978 405.59C234.978 405.59 236.044 405.884 236.154 405.884C236.265 405.884 238.229 405.975 238.303 405.884C238.378 405.792 239.333 405.59 239.424 405.59C239.516 405.59 241.371 405.663 241.371 405.663L242.39 405.699C242.39 405.699 244.073 406.343 244.127 406.379C244.182 406.416 246.111 406.949 246.111 406.949L248.462 406.856L249.767 406.233L251.237 404.672C251.237 404.672 251.275 404.01 251.237 403.955C251.2 403.9 250.558 403.404 250.558 403.404Z" fill="#2D4573"/>
<path d="M222.632 395.785L222.339 394.939L221.237 394.756L220.098 394.316L219.73 393.69L219.694 392.81L219.362 391.928L218.371 391.009L217.415 389.21L216.401 387.447L215.799 386.713L214.807 387.594L213.631 388.181L212.822 389.65L211.756 390.605H209.625C209.625 390.605 207.752 390.937 207.861 391.009C207.972 391.083 208.376 392.442 208.376 392.442L208.45 394.022L209.222 394.756L209.882 396.298L210.948 397.363L211.827 398.245V399.419H214.218L215.32 399.015L215.799 398.171L216.424 398.905L217.011 399.2L217.93 398.722C217.93 398.722 219.105 399.126 219.215 399.236C219.326 399.347 220.281 400.117 220.281 400.117L221.162 400.668L222.632 400.485L223.368 400.117C223.368 400.117 223.734 400.449 223.845 400.374C223.955 400.302 224.728 399.457 224.728 399.457L224.947 398.832L223.111 397.18L222.632 395.785Z" fill="#2D4573"/>
<path d="M175.491 370.958C175.491 370.958 173.948 370.847 173.948 370.958C173.948 371.066 172.332 371.728 172.332 371.728L170.789 371.655L170.421 371.177L168.804 371.581L167.445 372.279L165.938 373.087L165.204 374.52C165.204 374.52 164.285 375.511 164.285 375.768C164.285 376.025 164.285 377.714 164.285 377.714L165.828 378.779L167.996 379.551L168.915 380.47L171.046 380.984L172.993 381.644L174.499 381.35L175.491 380.359L176.153 379.808V378.633L177.512 376.41C177.512 376.41 177.991 373.933 177.991 373.822C177.991 373.712 177.44 371.838 177.44 371.838L175.491 370.958Z" fill="#2D4573"/>
<path d="M154.584 377.863L154.18 378.854L153.739 379.477L152.858 379.881L152.086 380.763L151.205 381.829V383.149C151.205 383.149 151.167 384.253 151.205 384.362C151.241 384.472 151.903 384.362 151.903 384.362L152.269 384.104L152.564 383.224L153.666 381.901L155.577 381.136L155.943 380.359V379.147L155.76 377.863H154.584Z" fill="#2D4573"/>
</svg>
