<svg width="512" height="512" viewBox="0 0 512 512" fill="none" xmlns="http://www.w3.org/2000/svg">
<path fill-rule="evenodd" clip-rule="evenodd" d="M475.742 295.566C477.937 282.715 479.082 269.495 479.082 256C479.082 254.804 479.073 253.609 479.055 252.417C487.557 266.39 494.413 280.61 499.35 294.876C530.185 383.97 476.174 445.968 375.667 448.605C390.383 439.032 403.927 427.738 416.029 414.999C469.858 396.492 492.825 350.9 475.742 295.566ZM475.742 295.566C475.263 294.015 474.753 292.457 474.211 290.891C444.623 205.398 325.559 112.441 199.283 92.4288C158.15 85.91 123.539 88.2859 96.5883 97.4085C108.53 84.7762 121.886 73.5545 136.394 64.0112C153.273 63.5724 171.464 64.8075 190.783 67.8693C306.759 86.2494 425.529 164.45 479.055 252.417C477.186 128.148 378.261 28 256.502 28C212.265 28 171.043 41.219 136.394 64.0112C35.8482 66.6248 -18.1907 128.63 12.6499 217.743C17.7886 232.59 25.0061 247.389 33.9949 261.911C37.0554 385.1 135.503 484 256.502 484C300.338 484 341.214 471.019 375.667 448.605C358.771 449.049 340.56 447.814 321.217 444.749C205.993 426.488 88.0112 349.18 33.9949 261.911C33.9461 259.947 33.9216 257.976 33.9216 256C33.9216 243.375 34.9233 230.99 36.8497 218.924C37.1514 219.855 37.4643 220.79 37.7886 221.727C67.3768 307.22 186.441 400.177 312.717 420.189C354.165 426.758 388.99 424.295 416.029 414.999C446.534 382.89 467.879 341.603 475.742 295.566ZM96.5883 97.4085C41.7092 115.985 18.5935 162.536 36.8497 218.924C44.3281 172.081 65.742 130.039 96.5883 97.4085Z" fill="url(#paint0_radial_67_212)"/>
<path d="M474.903 292.939C476.815 280.916 477.809 268.577 477.809 256C477.809 254.088 477.786 252.182 477.741 250.281C423.605 163.187 305.82 86.1006 190.783 67.8695C170.955 64.7271 152.316 63.5088 135.063 64.0495C120.328 73.7492 106.782 85.1807 94.6996 98.0635C121.915 88.4028 157.182 85.7568 199.283 92.429C325.559 112.441 444.623 205.398 474.211 290.892C474.448 291.575 474.679 292.258 474.903 292.939Z" fill="white"/>
<path d="M414.157 415.628C387.39 424.404 353.215 426.608 312.717 420.189C186.441 400.177 67.3768 307.22 37.7885 221.727C37.1551 219.896 36.5649 218.076 36.0176 216.266C33.8039 229.17 32.6494 242.447 32.6494 256C32.6494 257.257 32.6593 258.511 32.6791 259.762C86.0761 347.908 205.048 426.338 321.217 444.749C340.057 447.735 357.823 448.983 374.347 448.637C388.839 439.214 402.195 428.123 414.157 415.628Z" fill="white"/>
<path d="M362.069 173.341V271.175L314.315 336.431V238.497L362.069 173.341Z" fill="white"/>
<path d="M346.119 173.341L250.61 303.753L155.102 173.341H226.733L250.61 205.919L274.488 173.341H346.119Z" fill="white"/>
<path d="M139.15 173.341V271.73L186.905 337.357V238.866L139.15 173.341Z" fill="white"/>
<defs>
<radialGradient id="paint0_radial_67_212" cx="0" cy="0" r="1" gradientUnits="userSpaceOnUse" gradientTransform="translate(267.614 334.471) scale(249.13 384.412)">
<stop stop-color="#4168AF"/>
<stop offset="1" stop-color="#112285"/>
</radialGradient>
</defs>
</svg>
